<?xml version="1.0" standalone="no"?>
<!DOCTYPE svg PUBLIC "-//W3C//DTD SVG 20010904//EN"
 "http://www.w3.org/TR/2001/REC-SVG-20010904/DTD/svg10.dtd">
<svg version="1.0" xmlns="http://www.w3.org/2000/svg"
 width="263.000000pt" height="96.000000pt" viewBox="0 0 263.000000 96.000000"
 preserveAspectRatio="xMidYMid meet">

<g transform="translate(0.000000,96.000000) scale(0.100000,-0.100000)"
fill="#000000" stroke="none">
<path d="M0 480 l0 -480 1315 0 1315 0 0 480 0 480 -1315 0 -1315 0 0 -480z
m2600 0 l0 -450 -1290 0 -1290 0 0 450 0 450 1290 0 1290 0 0 -450z"/>
<path d="M90 480 l0 -390 820 0 820 0 0 390 0 390 -820 0 -820 0 0 -390z m875
170 c0 -18 -6 -26 -23 -28 -24 -4 -38 18 -28 44 3 9 15 14 28 12 17 -2 23 -10
23 -28z m-379 -85 c5 -13 9 -13 34 0 16 8 49 15 74 15 36 0 52 -6 78 -29 27
-24 32 -36 36 -87 4 -54 1 -63 -23 -92 -43 -51 -115 -62 -172 -24 l-23 14 0
-67 c0 -58 -2 -66 -17 -63 -16 3 -18 21 -21 176 -2 150 0 172 13 172 9 0 18
-7 21 -15z m374 -110 c0 -118 -1 -125 -20 -125 -19 0 -20 7 -20 125 0 118 1
125 20 125 19 0 20 -7 20 -125z m182 80 c18 -24 36 -44 39 -45 3 0 19 20 37
45 20 28 39 45 52 45 11 0 20 -2 20 -5 0 -3 -18 -31 -41 -61 l-41 -56 23 -32
c12 -17 34 -46 47 -63 l24 -33 -24 0 c-18 0 -34 13 -57 45 -18 25 -36 45 -40
45 -4 0 -22 -20 -40 -45 -23 -33 -39 -45 -57 -45 -25 0 -24 2 20 59 25 33 46
63 46 67 0 4 -18 31 -40 60 -22 29 -40 56 -40 59 0 3 9 5 20 5 11 0 33 -18 52
-45z"/>
<path d="M633 531 c-81 -51 -32 -183 62 -166 47 9 75 42 75 90 0 74 -74 115
-137 76z"/>
<path d="M2101 678 c-5 -13 -47 -119 -94 -235 -72 -180 -82 -213 -67 -213 13
0 26 22 50 80 l32 80 97 0 96 0 29 -76 c27 -68 47 -96 62 -81 8 8 -172 461
-185 465 -6 2 -15 -7 -20 -20z m58 -140 c19 -51 36 -99 39 -105 3 -10 -16 -13
-77 -13 -45 0 -81 3 -81 7 0 13 75 203 80 203 3 0 21 -42 39 -92z"/>
<path d="M2380 465 c0 -202 2 -235 15 -235 13 0 15 33 15 235 0 202 -2 235
-15 235 -13 0 -15 -33 -15 -235z"/>
</g>
</svg>
